<svg xmlns="http://www.w3.org/2000/svg" xmlns:xlink="http://www.w3.org/1999/xlink" version="1.1" x="0px" y="0px" viewBox="0 0 100 125" style="enable-background:new 0 0 100 100;" xml:space="preserve"><style type="text/css">
	.st0{fill-rule:evenodd;clip-rule:evenodd;}
</style><path class="st0" d="M50,10.294c-21.929,0-39.706,17.777-39.706,39.706S28.071,89.706,50,89.706  c21.929,0,39.706-17.777,39.706-39.706S71.929,10.294,50,10.294L50,10.294z M62.989,59.246c2.464,2.464-1.279,6.207-3.743,3.743  L50,53.743l-9.246,9.246c-2.464,2.464-6.207-1.279-3.743-3.743L46.257,50l-9.246-9.246c-2.464-2.464,1.279-6.207,3.743-3.743  L50,46.257l9.246-9.246c2.464-2.464,6.207,1.279,3.743,3.743L53.743,50L62.989,59.246L62.989,59.246z M18.181,18.181  c17.573-17.574,46.066-17.574,63.639,0c17.574,17.574,17.574,46.066,0,63.639c-17.573,17.573-46.066,17.573-63.639,0  S0.607,35.754,18.181,18.181z"/><text x="0" y="115" fill="#000000" font-size="5px" font-weight="bold" font-family="'Helvetica Neue', Helvetica, Arial-Unicode, Arial, Sans-serif">Created by Hidayatul Munawaroh</text><text x="0" y="120" fill="#000000" font-size="5px" font-weight="bold" font-family="'Helvetica Neue', Helvetica, Arial-Unicode, Arial, Sans-serif">from the Noun Project</text></svg>