<svg xmlns="http://www.w3.org/2000/svg" data-name="Layer 1" viewBox="0 0 100 125" x="0px" y="0px"><path d="m94.929,32.187l-11.186,33.947c-.19.577-.729.966-1.335.966h-44.663l.965,2.484c.725,1.866,2.42,3.025,4.424,3.025h36.523c.777,0,1.406.63,1.406,1.406s-.63,1.406-1.406,1.406h-36.523c-3.191,0-5.891-1.846-7.046-4.818L16.24,19.527l-9.997-1.172c-.771-.09-1.323-.789-1.233-1.56.09-.771.788-1.324,1.56-1.233l10.837,1.271c.517.061.958.402,1.147.887l4.905,12.621h12.066c.777,0,1.406.63,1.406,1.406s-.63,1.406-1.406,1.406h-10.973l12.099,31.135h44.739l10.259-31.135h-11.086c-.777,0-1.406-.63-1.406-1.406s.63-1.406,1.406-1.406h13.03c.451,0,.875.216,1.139.582.265.366.337.836.196,1.264Zm-39.397,48.963c0,2.819-2.291,5.113-5.108,5.113s-5.113-2.294-5.113-5.113,2.294-5.113,5.113-5.113,5.108,2.294,5.108,5.113Zm-2.812,0c0-1.269-1.03-2.301-2.296-2.301s-2.301,1.032-2.301,2.301,1.032,2.301,2.301,2.301,2.296-1.032,2.296-2.301Zm20.546,0c0,2.819-2.294,5.113-5.113,5.113s-5.108-2.294-5.108-5.113,2.292-5.113,5.108-5.113,5.113,2.294,5.113,5.113Zm-2.812,0c0-1.269-1.032-2.301-2.301-2.301s-2.296,1.032-2.296,2.301,1.03,2.301,2.296,2.301,2.301-1.032,2.301-2.301Zm-25.145-36.67c-7.021-7.021-7.021-18.445,0-25.467,3.401-3.403,7.923-5.277,12.734-5.277s9.335,1.874,12.738,5.277c3.401,3.401,5.274,7.923,5.274,12.734s-1.873,9.333-5.274,12.734c-3.403,3.403-7.927,5.277-12.738,5.277s-9.334-1.874-12.735-5.278Zm1.989-1.988c2.87,2.872,6.686,4.454,10.745,4.454s7.877-1.582,10.749-4.454,4.45-6.686,4.45-10.745-1.58-7.875-4.45-10.745c-2.872-2.872-6.69-4.454-10.749-4.454s-7.875,1.581-10.745,4.453c-5.925,5.925-5.925,15.565,0,21.49Zm9.751-2.291c.264.264.621.412.994.412s.731-.148.994-.412l4.609-4.609c.549-.549.549-1.44,0-1.989-.549-.549-1.44-.549-1.989,0l-2.208,2.208v-11.523c0-.777-.63-1.406-1.406-1.406s-1.406.63-1.406,1.406v11.523l-2.208-2.208c-.549-.549-1.44-.549-1.989,0-.549.549-.549,1.44,0,1.989l4.609,4.609Z"/><text x="0" y="115" fill="#000000" font-size="5px" font-weight="bold" font-family="'Helvetica Neue', Helvetica, Arial-Unicode, Arial, Sans-serif">Created by Hanzal Ziandru</text><text x="0" y="120" fill="#000000" font-size="5px" font-weight="bold" font-family="'Helvetica Neue', Helvetica, Arial-Unicode, Arial, Sans-serif">from the Noun Project</text></svg>